<!DOCTYPE svg PUBLIC "-//W3C//DTD SVG 1.1//EN" "http://www.w3.org/Graphics/SVG/1.1/DTD/svg11.dtd">
<!-- Uploaded to: SVG Repo, www.svgrepo.com, Transformed by: SVG Repo Mixer Tools -->
<svg fill="#ffffff" height="800px" width="800px" version="1.1" id="Capa_1" xmlns="http://www.w3.org/2000/svg" xmlns:xlink="http://www.w3.org/1999/xlink" viewBox="0 0 511 511" xml:space="preserve">
<g id="SVGRepo_bgCarrier" stroke-width="0"/>
<g id="SVGRepo_tracerCarrier" stroke-linecap="round" stroke-linejoin="round"/>
<g id="SVGRepo_iconCarrier"> <g> <path d="M510.974,370.985c-0.007-0.098-0.009-0.196-0.019-0.293c-0.011-0.101-0.031-0.202-0.046-0.302 c-0.023-0.156-0.045-0.313-0.078-0.466c-0.002-0.01-0.003-0.021-0.005-0.032c-18.803-85.659-52.978-155.851-78.335-199.65 c-23.469-40.537-43.503-66.096-49.491-73.445V75.5c0-12.958-10.542-23.5-23.5-23.5h-208C138.542,52,128,62.542,128,75.5v21.297 c-5.987,7.349-26.022,32.908-49.491,73.445c-25.357,43.799-59.532,113.991-78.335,199.65c-0.002,0.011-0.003,0.021-0.005,0.032 c-0.033,0.153-0.054,0.309-0.078,0.466c-0.015,0.101-0.035,0.202-0.046,0.302c-0.01,0.096-0.012,0.195-0.019,0.293 c-0.011,0.162-0.024,0.324-0.024,0.486c0,0.01-0.001,0.02-0.001,0.03v12.844c0,9.801,6.179,18.663,15.376,22.051l122.784,45.237 c13.271,4.889,27.17,7.368,41.313,7.368h152.049c14.142,0,28.041-2.479,41.311-7.368l122.792-45.238 c9.197-3.388,15.376-12.25,15.376-22.051V371.5c0-0.01-0.001-0.02-0.001-0.03C510.998,371.309,510.985,371.147,510.974,370.985z M15.841,388c-0.538-1.122-0.841-2.365-0.841-3.656V379h481v5.343c0,1.292-0.303,2.535-0.841,3.657H15.841z M16.905,364 c16.328-69.363,42.647-127.827,64.935-169h96.117c-6.354,12.117-9.957,25.895-9.957,40.5c0,48.248,39.252,87.5,87.5,87.5 s87.5-39.252,87.5-87.5c0-14.605-3.602-28.383-9.956-40.5h96.117c22.288,41.173,48.607,99.637,64.935,169H16.905z M328,235.5 c0,39.977-32.523,72.5-72.5,72.5S183,275.477,183,235.5s32.523-72.5,72.5-72.5S328,195.523,328,235.5z M151.5,67h208 c4.687,0,8.5,3.813,8.5,8.5V92H143V75.5C143,70.813,146.813,67,151.5,67z M139.051,107h232.899 c6.298,7.83,25.653,32.869,47.761,71.105c0.359,0.62,0.725,1.264,1.087,1.895h-97.701c-16.061-19.526-40.398-32-67.596-32 s-51.535,12.474-67.596,32H90.203c0.362-0.631,0.729-1.275,1.087-1.895C113.398,139.867,132.754,114.828,139.051,107z M367.647,437.557c-11.604,4.275-23.759,6.443-36.125,6.443H179.473c-12.367,0-24.522-2.168-36.127-6.443L49.551,403h411.896 L367.647,437.557z"/> <path d="M255.5,180c-4.142,0-7.5,3.358-7.5,7.5s3.358,7.5,7.5,7.5c22.332,0,40.5,18.168,40.5,40.5c0,4.142,3.358,7.5,7.5,7.5 s7.5-3.358,7.5-7.5C311,204.897,286.103,180,255.5,180z"/> </g> </g>
</svg>