<!DOCTYPE svg PUBLIC "-//W3C//DTD SVG 1.1//EN" "http://www.w3.org/Graphics/SVG/1.1/DTD/svg11.dtd">
<!-- Uploaded to: SVG Repo, www.svgrepo.com, Transformed by: SVG Repo Mixer Tools -->
<svg fill="#ffffff" height="800px" width="800px" version="1.1" id="Layer_1" xmlns="http://www.w3.org/2000/svg" xmlns:xlink="http://www.w3.org/1999/xlink" viewBox="0 0 511.999 511.999" xml:space="preserve" stroke="#ffffff">
<g id="SVGRepo_bgCarrier" stroke-width="0"/>
<g id="SVGRepo_tracerCarrier" stroke-linecap="round" stroke-linejoin="round"/>
<g id="SVGRepo_iconCarrier"> <g> <g> <g> <path d="M457.756,269.365h-60.762v-50.307c0-1.086-0.217-2.159-0.639-3.16l-51.36-121.702c-1.271-3.01-4.219-4.967-7.487-4.967 h-20.345V68.326c0-15.563-12.661-28.226-28.225-28.226h-65.876c-15.563,0-28.225,12.663-28.225,28.226V89.23H174.49 c-3.268,0-6.216,1.957-7.487,4.967l-51.359,121.702c-0.423,1-0.639,2.074-0.639,3.16v50.307H54.242 C24.332,269.365,0,293.699,0,323.608v30.742c0,15.563,12.661,28.225,28.225,28.225h78.286c-1.711,3.638-2.673,7.694-2.673,11.973 v4.464c0,11.083,6.423,20.688,15.74,25.304l-23.167,34.965c-2.479,3.742-1.455,8.784,2.286,11.264 c1.382,0.916,2.94,1.353,4.482,1.353c2.634,0,5.218-1.28,6.782-3.639l27.179-41.023h110.732v36.534 c0,4.489,3.639,8.127,8.127,8.127c4.489,0,8.127-3.638,8.127-8.127v-36.535h110.733l27.177,41.023 c1.563,2.36,4.147,3.639,6.782,3.639c1.541,0,3.1-0.438,4.482-1.353c3.742-2.478,4.764-7.521,2.285-11.264l-23.164-34.967 c9.316-4.615,15.74-14.222,15.74-25.304v-4.464c0-4.279-0.962-8.336-2.673-11.973h78.288c15.562,0,28.224-12.661,28.224-28.225 v-30.742C512,293.699,487.666,269.365,457.756,269.365z M211.092,68.326c0-6.602,5.37-11.972,11.971-11.972h65.875 c6.601,0,11.971,5.37,11.971,11.972V89.23h-89.818V68.326z M391.908,399.012c0,6.601-5.37,11.971-11.971,11.971h-0.637 c-0.008,0-0.015,0-0.023,0H132.723c-0.008,0-0.015,0-0.023,0h-0.638c-6.601,0-11.971-5.37-11.971-11.971v-4.464 c0-6.602,5.37-11.973,11.971-11.973h247.873c6.602,0,11.972,5.371,11.972,11.973V399.012z M483.776,366.321h-103.84H132.062 H28.225c-6.601,0-11.971-5.37-11.971-11.971v-30.742c0-20.947,17.041-37.99,37.989-37.99h277.552 c4.489,0,8.127-3.638,8.127-8.127s-3.638-8.127-8.127-8.127H131.258v-48.662l48.624-115.22h23.082h106.071h23.081l48.625,115.22 v48.662h-22.942c-4.488,0-8.127,3.638-8.127,8.127s3.639,8.127,8.127,8.127h99.957c20.947,0,37.99,17.042,37.99,37.99v30.742 h0.001C495.747,360.951,490.376,366.321,483.776,366.321z"/> <path d="M455.303,317.844H56.696c-4.488,0-8.127,3.638-8.127,8.127s3.639,8.127,8.127,8.127h398.606 c4.489,0,8.127-3.638,8.127-8.127S459.792,317.844,455.303,317.844z"/> <path d="M256.001,159.067c-22.643,0-41.065,18.422-41.065,41.065c0,22.642,18.422,41.063,41.065,41.063 s41.064-18.421,41.064-41.063C297.064,177.489,278.643,159.067,256.001,159.067z M256.001,224.942 c-13.681,0-24.811-11.129-24.811-24.809c0-13.681,11.13-24.811,24.811-24.811c13.68,0,24.81,11.13,24.81,24.811 C280.81,213.813,269.681,224.942,256.001,224.942z"/> </g> </g> </g> </g>
</svg>